<svg width="25" height="25" viewBox="0 0 25 25" fill="none" xmlns="http://www.w3.org/2000/svg">
<circle cx="12.1057" cy="12.2114" r="11.5" fill="#FCFCFC" stroke="currentColor"/>
<path d="M11.7073 13.9146L10.926 8.21143C10.8739 7.82601 10.8896 7.49268 10.9729 7.21143C11.0562 6.91976 11.1917 6.6958 11.3792 6.53955C11.5771 6.3833 11.8167 6.30518 12.0979 6.30518C12.3896 6.30518 12.6292 6.3833 12.8167 6.53955C13.0146 6.6958 13.1552 6.91976 13.2385 7.21143C13.3219 7.49268 13.3375 7.82601 13.2854 8.21143L12.5042 13.9146H11.7073ZM12.0979 17.3677C11.8583 17.3677 11.6396 17.3156 11.4417 17.2114C11.2542 17.0968 11.1031 16.9458 10.9885 16.7583C10.8739 16.5604 10.8167 16.3416 10.8167 16.1021C10.8167 15.8625 10.8739 15.6489 10.9885 15.4614C11.1031 15.2635 11.2542 15.1073 11.4417 14.9927C11.6396 14.8781 11.8583 14.8208 12.0979 14.8208C12.3479 14.8208 12.5719 14.8781 12.7698 14.9927C12.9677 15.1073 13.1239 15.2635 13.2385 15.4614C13.3531 15.6489 13.4104 15.8625 13.4104 16.1021C13.4104 16.4562 13.2854 16.7583 13.0354 17.0083C12.7854 17.2479 12.4729 17.3677 12.0979 17.3677Z" fill="currentColor"/>
</svg>
