<svg width="420" height="421" viewBox="0 0 420 421" xmlns="http://www.w3.org/2000/svg">
<path d="M330.289 408.979C329.034 408.513 327.8 407.89 326.503 407.59C301.936 401.886 284.576 380.72 283.975 355.52C283.788 347.597 286.184 340.234 289.544 333.182C298.68 313.976 311.819 297.529 325.56 281.527C329.677 276.726 334.063 272.153 339.103 266.615C349.93 279.931 361.016 292.561 370.899 306.084C377.712 315.397 383.54 325.581 388.611 335.962C402.819 364.999 381.954 402.539 347.711 408.202C347.057 408.305 346.446 408.71 345.823 408.979C340.649 408.979 335.474 408.979 330.289 408.979ZM337.911 301.366C329.231 314.308 320.675 326.421 312.908 339.021C310.097 343.584 308.075 349.246 307.65 354.556C306.696 366.492 315.075 378.397 326.452 383.167C338.201 388.093 351.973 385.325 360.767 376.251C367.757 369.033 373.336 356.288 366.377 342.796C358.869 328.225 349.163 315.273 337.911 301.366Z"/>
<path d="M96.8516 128.347C109.431 128.347 121.73 128.751 133.988 128.233C146.806 127.704 155.278 118.236 155.382 105.283C155.465 93.6475 155.403 82.0016 155.403 70.0342C167.017 70.0342 178.466 70.0342 190.185 70.0342C190.185 62.1424 190.185 54.5822 190.185 46.5763C170.979 46.5763 151.659 46.5763 132.173 46.5763C132.173 38.5808 132.173 31.021 132.173 23.1913C151.524 23.1913 170.761 23.1913 190.309 23.1913C190.309 19.2506 190.309 15.5586 190.309 11.649C198.18 11.649 205.751 11.649 213.632 11.649C213.632 15.2371 213.632 18.9186 213.632 23.0149C233.253 23.0149 252.573 23.0149 272.059 23.0149C272.059 30.9897 272.059 38.5497 272.059 46.4001C252.708 46.4001 233.492 46.4001 214.037 46.4001C214.037 54.2505 214.037 61.8104 214.037 69.7023C225.465 69.7023 236.903 69.7023 248.84 69.7023C248.84 73.3319 248.84 76.6402 248.84 79.9587C248.84 89.1469 248.819 98.3348 248.85 107.513C248.892 120.258 256.638 127.922 269.466 127.942C316.081 128.015 355.105 154.594 370.992 197.009C376.758 212.419 378.189 228.379 377.463 244.93C350.355 244.93 323.257 244.93 295.641 244.93C295.641 241.726 295.662 238.407 295.641 235.099C295.517 219.824 285.862 210.19 270.607 210.179C213.798 210.169 156.989 210.179 100.17 210.179C99.1434 210.179 98.1167 210.179 97.287 210.179C95.97 214.39 95.1507 218.6 93.3774 222.364C86.6885 236.582 75.364 244.443 59.6114 245.076C48.7847 245.511 37.9168 245.159 26.8723 245.159C26.8723 194.572 26.8723 144.161 26.8723 93.5023C27.6501 93.4089 28.5107 93.2017 29.3611 93.2121C39.8455 93.264 50.3508 92.8282 60.7938 93.523C79.813 94.7882 93.5745 107.969 96.53 126.885C96.5819 127.289 96.696 127.662 96.8516 128.347ZM353.093 221.691C352.989 220.664 352.938 219.762 352.813 218.87C347.783 184.959 315.884 154.926 281.662 152.002C274.838 151.421 267.89 151.856 261.16 150.778C240.149 147.407 225.735 130.193 225.486 108.83C225.423 103.707 225.475 98.5943 225.475 93.4506C209.66 93.4506 194.323 93.4506 178.757 93.4506C178.757 98.0654 178.819 102.452 178.746 106.839C178.404 125.962 166.457 142.876 148.288 148.922C142.761 150.768 136.684 151.493 130.825 151.711C119.615 152.136 108.383 151.836 97.0174 151.836C97.0174 163.658 97.0174 175.107 97.0174 186.856C98.6144 186.856 100.014 186.856 101.414 186.856C157.829 186.856 214.234 186.908 270.648 186.825C284.877 186.804 296.927 191.616 306.675 201.966C311.974 207.587 315.459 214.307 317.616 221.887C328.785 221.887 339.757 221.887 350.739 221.877C351.506 221.877 352.263 221.763 353.093 221.691ZM50.1641 221.856C53.3686 221.856 56.2101 221.96 59.0516 221.836C66.7672 221.504 73.2486 215.396 73.3005 207.691C73.4664 182.086 73.4457 156.471 73.3109 130.867C73.2798 124.323 68.3745 118.391 62.1108 117.23C58.2738 116.514 54.2501 116.773 50.1641 116.587C50.1641 151.95 50.1641 186.701 50.1641 221.856Z"/>
<path d="M50.776 288.268H27.6396V268.15H96.0426V288.268H72.9062V408.979H50.776V288.268Z" />
<path d="M126.625 268.15H156.605L179.545 408.979H157.414L153.391 381.01V381.415H128.243L124.219 408.979H103.696L126.625 268.15ZM150.767 362.302L140.905 292.686H140.5L130.846 362.302H150.767Z" />
<path d="M202.266 268.15H234.86C245.853 268.15 254.108 271.105 259.604 277.006C265.1 282.907 267.848 291.566 267.848 302.963V316.849C267.848 328.246 265.1 336.905 259.604 342.806C254.097 348.707 245.853 351.662 234.86 351.662H224.397V409H202.266V268.15ZM234.86 331.523C238.479 331.523 241.197 330.517 243.011 328.505C244.826 326.493 245.728 323.071 245.728 318.249V301.553C245.728 296.72 244.826 293.308 243.011 291.296C241.197 289.284 238.479 288.279 234.86 288.279H224.397V331.533H234.86V331.523Z" />
</svg>
