<svg width="1690" height="421" viewBox="0 0 1690 421" xmlns="http://www.w3.org/2000/svg">
<path d="M330.289 408.979C329.034 408.513 327.8 407.89 326.503 407.59C301.936 401.886 284.576 380.72 283.975 355.52C283.788 347.597 286.184 340.234 289.544 333.182C298.68 313.976 311.819 297.529 325.56 281.527C329.677 276.726 334.063 272.153 339.103 266.615C349.93 279.931 361.016 292.561 370.899 306.084C377.712 315.397 383.54 325.581 388.611 335.962C402.819 364.999 381.954 402.539 347.711 408.202C347.057 408.305 346.446 408.71 345.823 408.979C340.649 408.979 335.474 408.979 330.289 408.979ZM337.911 301.366C329.231 314.308 320.675 326.421 312.908 339.021C310.097 343.584 308.075 349.246 307.65 354.556C306.696 366.492 315.075 378.397 326.452 383.167C338.201 388.093 351.973 385.325 360.767 376.251C367.757 369.033 373.336 356.288 366.377 342.796C358.869 328.225 349.163 315.273 337.911 301.366Z" />
<path d="M96.8516 128.347C109.431 128.347 121.73 128.751 133.988 128.233C146.806 127.704 155.278 118.236 155.382 105.283C155.465 93.6475 155.403 82.0016 155.403 70.0342C167.017 70.0342 178.466 70.0342 190.185 70.0342C190.185 62.1424 190.185 54.5822 190.185 46.5763C170.979 46.5763 151.659 46.5763 132.173 46.5763C132.173 38.5808 132.173 31.021 132.173 23.1913C151.524 23.1913 170.761 23.1913 190.309 23.1913C190.309 19.2506 190.309 15.5586 190.309 11.649C198.18 11.649 205.751 11.649 213.632 11.649C213.632 15.2371 213.632 18.9186 213.632 23.0149C233.253 23.0149 252.573 23.0149 272.059 23.0149C272.059 30.9897 272.059 38.5497 272.059 46.4001C252.708 46.4001 233.492 46.4001 214.037 46.4001C214.037 54.2505 214.037 61.8104 214.037 69.7023C225.465 69.7023 236.903 69.7023 248.84 69.7023C248.84 73.3319 248.84 76.6402 248.84 79.9587C248.84 89.1469 248.819 98.3348 248.85 107.513C248.892 120.258 256.638 127.922 269.466 127.942C316.081 128.015 355.105 154.594 370.992 197.009C376.758 212.419 378.189 228.379 377.463 244.93C350.355 244.93 323.257 244.93 295.641 244.93C295.641 241.726 295.662 238.407 295.641 235.099C295.517 219.824 285.862 210.19 270.607 210.179C213.798 210.169 156.989 210.179 100.17 210.179C99.1434 210.179 98.1167 210.179 97.287 210.179C95.97 214.39 95.1507 218.6 93.3774 222.364C86.6885 236.582 75.364 244.443 59.6114 245.076C48.7847 245.511 37.9168 245.159 26.8723 245.159C26.8723 194.572 26.8723 144.161 26.8723 93.5023C27.6501 93.4089 28.5107 93.2017 29.3611 93.2121C39.8455 93.264 50.3508 92.8282 60.7938 93.523C79.813 94.7882 93.5745 107.969 96.53 126.885C96.5819 127.289 96.696 127.662 96.8516 128.347ZM353.093 221.691C352.989 220.664 352.938 219.762 352.813 218.87C347.783 184.959 315.884 154.926 281.662 152.002C274.838 151.421 267.89 151.856 261.16 150.778C240.149 147.407 225.735 130.193 225.486 108.83C225.423 103.707 225.475 98.5943 225.475 93.4506C209.66 93.4506 194.323 93.4506 178.757 93.4506C178.757 98.0654 178.819 102.452 178.746 106.839C178.404 125.962 166.457 142.876 148.288 148.922C142.761 150.768 136.684 151.493 130.825 151.711C119.615 152.136 108.383 151.836 97.0174 151.836C97.0174 163.658 97.0174 175.107 97.0174 186.856C98.6144 186.856 100.014 186.856 101.414 186.856C157.829 186.856 214.234 186.908 270.648 186.825C284.877 186.804 296.927 191.616 306.675 201.966C311.974 207.587 315.459 214.307 317.616 221.887C328.785 221.887 339.757 221.887 350.739 221.877C351.506 221.877 352.263 221.763 353.093 221.691ZM50.1641 221.856C53.3686 221.856 56.2101 221.96 59.0516 221.836C66.7672 221.504 73.2486 215.396 73.3005 207.691C73.4664 182.086 73.4457 156.471 73.3109 130.867C73.2798 124.323 68.3745 118.391 62.1108 117.23C58.2738 116.514 54.2501 116.773 50.1641 116.587C50.1641 151.95 50.1641 186.701 50.1641 221.856Z" />
<path d="M50.7761 288.268H27.6398V268.15H96.0427V288.268H72.9063V408.979H50.7761V288.268Z" />
<path d="M126.625 268.15H156.606L179.545 408.979H157.414L153.391 381.01V381.415H128.243L124.219 408.979H103.696L126.625 268.15ZM150.767 362.302L140.905 292.686H140.5L130.846 362.302H150.767Z" />
<path d="M202.266 268.15H234.86C245.853 268.15 254.108 271.105 259.604 277.006C265.1 282.907 267.849 291.566 267.849 302.963V316.849C267.849 328.246 265.1 336.905 259.604 342.806C254.098 348.707 245.853 351.662 234.86 351.662H224.397V409H202.266V268.15ZM234.86 331.523C238.48 331.523 241.197 330.517 243.012 328.505C244.826 326.493 245.729 323.071 245.729 318.249V301.553C245.729 296.72 244.826 293.308 243.012 291.296C241.197 289.284 238.48 288.279 234.86 288.279H224.397V331.533H234.86V331.523Z" />
<path d="M461.32 52.7646H440V34.2245H503.02V52.7646H481.7V163.985H461.32V52.7646Z" />
<path d="M512.85 34.2345H543.06C553.56 34.2345 561.23 36.6744 566.04 41.5544C570.86 46.4344 573.27 53.9444 573.27 64.0744V72.0443C573.27 85.5143 568.82 94.0444 559.92 97.6244V97.9945C564.86 99.4745 568.35 102.504 570.39 107.074C572.43 111.644 573.45 117.764 573.45 125.424V148.225C573.45 151.935 573.57 154.925 573.82 157.215C574.07 159.505 574.68 161.755 575.67 163.985H554.91C554.17 161.885 553.67 159.904 553.43 158.054C553.18 156.204 553.06 152.864 553.06 148.044V124.314C553.06 118.384 552.1 114.244 550.19 111.894C548.27 109.544 544.97 108.374 540.27 108.374H533.23V163.985H512.84V34.2345H512.85ZM540.65 89.8444C544.73 89.8444 547.79 88.7945 549.83 86.6945C551.87 84.5945 552.89 81.0744 552.89 76.1244V66.1144C552.89 61.4244 552.06 58.0245 550.39 55.9245C548.72 53.8245 546.1 52.7746 542.51 52.7746H533.24V89.8444H540.65Z" />
<path d="M603.31 34.2345H630.93L652.06 163.985H631.67L627.96 138.215V138.584H604.79L601.08 163.975H582.17L603.31 34.2345ZM625.55 120.985L616.47 56.8544H616.1L607.2 120.985H625.55Z" />
<path d="M661.88 34.2345H682.27V163.985H661.88V34.2345Z" />
<path d="M697.46 34.2345H723.04L742.87 111.904H743.24V34.2345H761.41V163.985H740.46L715.99 69.2646H715.62V163.985H697.45V34.2345H697.46Z" />
<path d="M776.61 34.2345H832.22V52.7746H797V87.0644H824.99V105.604H797V145.454H832.22V163.995H776.61V34.2345Z" />
<path d="M843.89 34.2345H899.5V52.7746H864.28V87.0644H892.27V105.604H864.28V145.454H899.5V163.995H843.89V34.2345Z" />
<path d="M956.59 34.2345H984.21L1005.34 163.985H984.95L981.24 138.215V138.584H958.07L954.36 163.975H935.45L956.59 34.2345ZM978.83 120.985L969.75 56.8544H969.38L960.48 120.985H978.83Z" />
<path d="M1018.68 157.404C1013.61 151.784 1011.08 143.715 1011.08 133.215V125.804H1030.36V134.704C1030.36 143.104 1033.88 147.304 1040.93 147.304C1044.39 147.304 1047.01 146.285 1048.81 144.245C1050.6 142.205 1051.5 138.904 1051.5 134.324C1051.5 128.884 1050.26 124.104 1047.79 119.954C1045.32 115.814 1040.75 110.844 1034.07 105.034C1025.66 97.6243 1019.8 90.9145 1016.46 84.9245C1013.12 78.9345 1011.46 72.1644 1011.46 64.6244C1011.46 54.3644 1014.06 46.4344 1019.25 40.8044C1024.44 35.1844 1031.98 32.3744 1041.86 32.3744C1051.62 32.3744 1059.01 35.1844 1064.01 40.8044C1069.01 46.4244 1071.52 54.4945 1071.52 64.9945V70.3744H1052.24V63.7045C1052.24 59.2545 1051.37 56.0145 1049.65 53.9745C1047.92 51.9345 1045.39 50.9145 1042.05 50.9145C1035.25 50.9145 1031.85 55.0544 1031.85 63.3344C1031.85 68.0344 1033.12 72.4145 1035.65 76.4945C1038.18 80.5745 1042.79 85.5144 1049.46 91.3244C1057.99 98.7344 1063.85 105.475 1067.07 111.525C1070.28 117.585 1071.89 124.684 1071.89 132.844C1071.89 143.474 1069.26 151.624 1064.01 157.314C1058.76 163.004 1051.13 165.844 1041.12 165.844C1031.22 165.834 1023.75 163.024 1018.68 157.404Z" />
<path d="M1087.64 157.404C1082.57 151.784 1080.04 143.715 1080.04 133.215V125.804H1099.32V134.704C1099.32 143.104 1102.84 147.304 1109.89 147.304C1113.35 147.304 1115.97 146.285 1117.77 144.245C1119.56 142.205 1120.46 138.904 1120.46 134.324C1120.46 128.884 1119.22 124.104 1116.75 119.954C1114.28 115.814 1109.71 110.844 1103.03 105.034C1094.62 97.6243 1088.76 90.9145 1085.42 84.9245C1082.08 78.9345 1080.42 72.1644 1080.42 64.6244C1080.42 54.3644 1083.02 46.4344 1088.21 40.8044C1093.4 35.1844 1100.94 32.3744 1110.82 32.3744C1120.58 32.3744 1127.97 35.1844 1132.97 40.8044C1137.97 46.4244 1140.48 54.4945 1140.48 64.9945V70.3744H1121.2V63.7045C1121.2 59.2545 1120.33 56.0145 1118.61 53.9745C1116.88 51.9345 1114.35 50.9145 1111.01 50.9145C1104.21 50.9145 1100.81 55.0544 1100.81 63.3344C1100.81 68.0344 1102.08 72.4145 1104.61 76.4945C1107.14 80.5745 1111.75 85.5144 1118.42 91.3244C1126.95 98.7344 1132.81 105.475 1136.03 111.525C1139.24 117.585 1140.85 124.684 1140.85 132.844C1140.85 143.474 1138.22 151.624 1132.97 157.314C1127.72 163.004 1120.09 165.844 1110.08 165.844C1100.18 165.834 1092.7 163.024 1087.64 157.404Z" />
<path d="M1152.51 34.2345H1208.12V52.7746H1172.9V87.0644H1200.89V105.604H1172.9V145.454H1208.12V163.995H1152.51V34.2345Z" />
<path d="M1224.24 157.404C1219.17 151.784 1216.64 143.715 1216.64 133.215V125.804H1235.92V134.704C1235.92 143.104 1239.44 147.304 1246.49 147.304C1249.95 147.304 1252.57 146.285 1254.37 144.245C1256.16 142.205 1257.06 138.904 1257.06 134.324C1257.06 128.884 1255.82 124.104 1253.35 119.954C1250.88 115.814 1246.31 110.844 1239.63 105.034C1231.22 97.6243 1225.36 90.9145 1222.02 84.9245C1218.68 78.9345 1217.02 72.1644 1217.02 64.6244C1217.02 54.3644 1219.62 46.4344 1224.81 40.8044C1230 35.1844 1237.54 32.3744 1247.42 32.3744C1257.18 32.3744 1264.57 35.1844 1269.57 40.8044C1274.57 46.4244 1277.08 54.4945 1277.08 64.9945V70.3744H1257.8V63.7045C1257.8 59.2545 1256.93 56.0145 1255.21 53.9745C1253.48 51.9345 1250.95 50.9145 1247.61 50.9145C1240.81 50.9145 1237.41 55.0544 1237.41 63.3344C1237.41 68.0344 1238.68 72.4145 1241.21 76.4945C1243.74 80.5745 1248.35 85.5144 1255.02 91.3244C1263.55 98.7344 1269.41 105.475 1272.63 111.525C1275.84 117.585 1277.45 124.684 1277.45 132.844C1277.45 143.474 1274.82 151.624 1269.57 157.314C1264.32 163.004 1256.69 165.844 1246.68 165.844C1236.78 165.834 1229.31 163.024 1224.24 157.404Z" />
<path d="M1293.2 157.404C1288.13 151.784 1285.6 143.715 1285.6 133.215V125.804H1304.88V134.704C1304.88 143.104 1308.4 147.304 1315.45 147.304C1318.91 147.304 1321.53 146.285 1323.33 144.245C1325.12 142.205 1326.02 138.904 1326.02 134.324C1326.02 128.884 1324.78 124.104 1322.31 119.954C1319.84 115.814 1315.27 110.844 1308.59 105.034C1300.18 97.6243 1294.32 90.9145 1290.98 84.9245C1287.64 78.9345 1285.98 72.1644 1285.98 64.6244C1285.98 54.3644 1288.58 46.4344 1293.77 40.8044C1298.96 35.1844 1306.5 32.3744 1316.38 32.3744C1326.14 32.3744 1333.53 35.1844 1338.53 40.8044C1343.53 46.4244 1346.04 54.4945 1346.04 64.9945V70.3744H1326.76V63.7045C1326.76 59.2545 1325.89 56.0145 1324.17 53.9745C1322.44 51.9345 1319.91 50.9145 1316.57 50.9145C1309.77 50.9145 1306.37 55.0544 1306.37 63.3344C1306.37 68.0344 1307.64 72.4145 1310.17 76.4945C1312.7 80.5745 1317.31 85.5144 1323.98 91.3244C1332.51 98.7344 1338.37 105.475 1341.59 111.525C1344.8 117.585 1346.41 124.684 1346.41 132.844C1346.41 143.474 1343.78 151.624 1338.53 157.314C1333.28 163.004 1325.65 165.844 1315.64 165.844C1305.74 165.834 1298.26 163.024 1293.2 157.404Z" />
<path d="M1358.07 34.2345H1387.17L1400.15 127.094H1400.52L1413.5 34.2345H1442.6V163.985H1423.32V65.7445H1422.95L1408.12 163.985H1391.07L1376.24 65.7445H1375.87V163.985H1358.08V34.2345H1358.07Z" />
<path d="M1457.79 34.2345H1513.4V52.7746H1478.18V87.0644H1506.17V105.604H1478.18V145.454H1513.4V163.995H1457.79V34.2345Z" />
<path d="M1525.07 34.2345H1550.65L1570.48 111.904H1570.85V34.2345H1589.02V163.985H1568.07L1543.6 69.2646H1543.23V163.985H1525.06V34.2345H1525.07Z" />
<path d="M1620.16 52.7646H1598.84V34.2245H1661.86V52.7646H1640.54V163.985H1620.15V52.7646H1620.16Z" />
<path d="M850.01 256.664H880.04C890.17 256.664 897.77 259.384 902.84 264.824C907.91 270.264 910.44 278.234 910.44 288.734V301.525C910.44 312.025 907.9 319.994 902.84 325.434C897.77 330.874 890.17 333.594 880.04 333.594H870.4V386.424H850.01V256.664ZM880.04 315.054C883.38 315.054 885.88 314.125 887.55 312.275C889.22 310.425 890.05 307.274 890.05 302.824V287.444C890.05 282.994 889.22 279.845 887.55 277.995C885.88 276.145 883.38 275.214 880.04 275.214H870.4V315.064H880.04V315.054Z" />
<path d="M928.04 379.745C922.73 374.065 920.07 366.024 920.07 355.644V287.434C920.07 277.054 922.73 269.024 928.04 263.334C933.35 257.654 941.02 254.804 951.03 254.804C961.04 254.804 968.7 257.644 974.01 263.334C979.32 269.014 981.98 277.054 981.98 287.434V355.644C981.98 366.024 979.32 374.055 974.01 379.745C968.7 385.435 961.03 388.275 951.03 388.275C941.02 388.265 933.36 385.424 928.04 379.745ZM961.59 356.944V286.134C961.59 277.604 958.07 273.344 951.02 273.344C943.98 273.344 940.45 277.604 940.45 286.134V356.944C940.45 365.474 943.97 369.734 951.02 369.734C958.07 369.734 961.59 365.474 961.59 356.944Z" />
<path d="M995.7 256.664H1025.91C1036.41 256.664 1044.08 259.104 1048.89 263.984C1053.71 268.864 1056.12 276.375 1056.12 286.505V294.474C1056.12 307.944 1051.67 316.474 1042.77 320.054V320.424C1047.71 321.904 1051.2 324.935 1053.24 329.505C1055.28 334.075 1056.3 340.194 1056.3 347.854V370.654C1056.3 374.364 1056.42 377.364 1056.67 379.644C1056.92 381.934 1057.53 384.184 1058.52 386.414H1037.76C1037.02 384.314 1036.52 382.334 1036.28 380.484C1036.03 378.634 1035.91 375.294 1035.91 370.474V346.745C1035.91 340.815 1034.95 336.674 1033.04 334.324C1031.12 331.974 1027.82 330.804 1023.12 330.804H1016.08V386.414H995.69V256.664H995.7ZM1023.5 312.275C1027.58 312.275 1030.64 311.224 1032.68 309.124C1034.72 307.024 1035.74 303.504 1035.74 298.554V288.544C1035.74 283.854 1034.91 280.454 1033.24 278.354C1031.57 276.254 1028.95 275.204 1025.36 275.204H1016.09V312.275H1023.5Z" />
<path d="M1085.97 275.194H1064.65V256.654H1127.67V275.194H1106.35V386.414H1085.96V275.194H1085.97Z" />
<path d="M1144.73 256.664H1172.35L1193.48 386.414H1173.09L1169.38 360.654V361.025H1146.21L1142.5 386.414H1123.59L1144.73 256.664ZM1166.97 343.414L1157.89 279.284H1157.52L1148.62 343.414H1166.97Z" />
<path d="M1203.3 256.664H1223.69V367.884H1257.24V386.424H1203.3V256.664Z" />
</svg>
